<svg viewBox="0 0 132 132">
  <path d="M109.9,35.1c-14.3-10.7-28-10.4-28-10.4l-1.4,1.6c17,5.1,24.9,12.6,24.9,12.6c-10.4-5.6-20.6-8.4-30.1-9.5c-7.2-0.8-14.1-0.6-20.2,0.2c-0.6,0-1.1,0.1-1.7,0.2c-3.5,0.4-12,1.6-22.7,6.3c-3.7,1.6-5.9,2.8-5.9,2.8S33,31,51,25.9l-1-1.2c0,0-13.6-0.3-28,10.4c0,0-14.4,25.9-14.4,57.8c0,0,8.4,14.4,30.5,15.1c0,0,3.7-4.4,6.7-8.2C32.1,96,27.3,88.1,27.3,88.1s1,0.7,2.8,1.7c0.1,0,0.2,0.1,0.4,0.2c0.3,0.2,0.6,0.3,0.9,0.5c2.5,1.4,5,2.5,7.3,3.4c4.1,1.7,9,3.2,14.7,4.3c7.5,1.4,16.3,1.9,25.9,0.1c4.7-0.9,9.5-2.2,14.5-4.3c3.5-1.3,7.4-3.2,11.5-5.9c0,0-5,8.1-18.1,11.8c3,3.7,6.6,8,6.6,8c22.1-0.7,30.5-15.1,30.5-15C124.3,61,109.9,35.1,109.9,35.1z M47.7,77.7c-5.6,0-10.2-4.9-10.2-11c0-6.1,4.5-11,10.2-11s10.3,4.9,10.2,11C57.9,72.8,53.4,77.7,47.7,77.7z M84.2,77.7c-5.6,0-10.2-4.9-10.2-11c0-6.1,4.5-11,10.2-11c5.6,0,10.2,4.9,10.2,11C94.4,72.8,89.9,77.7,84.2,77.7z" />
</svg>
