<?xml version="1.0" encoding="utf-8"?>
<!-- Generator: Adobe Illustrator 21.0.0, SVG Export Plug-In . SVG Version: 6.00 Build 0)  -->
<svg xmlns="http://www.w3.org/2000/svg" xmlns:xlink="http://www.w3.org/1999/xlink"
	 x="0px" y="0px" viewBox="0 0 512 512" xml:space="preserve">
<circle cx="256.4" cy="62.5" r="45.2"/>
<g>
	<path d="M334.5,424.1c-111.2,0-222.5,0-333.7,0l222.9-287.9l28.6,33.1L84.6,383c83.3,0,166.6,0,249.9,0
		C334.5,396.7,334.5,410.4,334.5,424.1z"/>
</g>
<g>
	<path d="M178.3,494c111.2,0,222.5,0,333.7,0L289.1,206.1c-9.5,9.7-19.1,19.3-28.6,29
		c55.9,72.6,111.8,145.2,167.7,217.8c-83.3,0-166.6,0-249.9,0C178.3,466.6,178.3,480.3,178.3,494z"/>
</g>
</svg>
